<mxfile host="app.diagrams.net" modified="2021-01-16T16:20:19.890Z" agent="5.0 (Windows NT 10.0; Win64; x64) AppleWebKit/537.36 (KHTML, like Gecko) Chrome/87.0.4280.141 Safari/537.36" etag="EeOCOJXmEDXJ-jKla_PA" version="14.1.9" type="github" pages="10">
  <diagram id="0Fst5V195PZcNs_4YtCk" name="UseCase: Igranje tresete">
    <mxGraphModel dx="1550" dy="888" grid="1" gridSize="10" guides="1" tooltips="1" connect="1" arrows="1" fold="1" page="1" pageScale="1" pageWidth="850" pageHeight="1100" math="0" shadow="0">
      <root>
        <mxCell id="0" />
        <mxCell id="1" parent="0" />
        <mxCell id="MjSA2ZEEbugR-J2bg2_--2" value="Igrač" style="shape=umlActor;verticalLabelPosition=bottom;verticalAlign=top;html=1;" parent="1" vertex="1">
          <mxGeometry x="160" y="330" width="30" height="60" as="geometry" />
        </mxCell>
        <mxCell id="MjSA2ZEEbugR-J2bg2_--4" value="Igranje trešete" style="ellipse;whiteSpace=wrap;html=1;" parent="1" vertex="1">
          <mxGeometry x="270" y="325" width="140" height="70" as="geometry" />
        </mxCell>
        <mxCell id="MjSA2ZEEbugR-J2bg2_--5" value="" style="endArrow=classic;startArrow=classic;html=1;" parent="1" source="MjSA2ZEEbugR-J2bg2_--2" target="MjSA2ZEEbugR-J2bg2_--4" edge="1">
          <mxGeometry width="50" height="50" relative="1" as="geometry">
            <mxPoint x="330" y="590" as="sourcePoint" />
            <mxPoint x="380" y="540" as="targetPoint" />
          </mxGeometry>
        </mxCell>
        <mxCell id="MjSA2ZEEbugR-J2bg2_--6" value="Bodovanje" style="ellipse;whiteSpace=wrap;html=1;" parent="1" vertex="1">
          <mxGeometry x="560" y="490" width="140" height="70" as="geometry" />
        </mxCell>
        <mxCell id="MjSA2ZEEbugR-J2bg2_--7" value="Igranje kruga" style="ellipse;whiteSpace=wrap;html=1;" parent="1" vertex="1">
          <mxGeometry x="560" y="380" width="140" height="70" as="geometry" />
        </mxCell>
        <mxCell id="MjSA2ZEEbugR-J2bg2_--8" value="Unos igrača" style="ellipse;whiteSpace=wrap;html=1;" parent="1" vertex="1">
          <mxGeometry x="560" y="160" width="140" height="70" as="geometry" />
        </mxCell>
        <mxCell id="MjSA2ZEEbugR-J2bg2_--9" value="Dijeljenje karata" style="ellipse;whiteSpace=wrap;html=1;" parent="1" vertex="1">
          <mxGeometry x="560" y="270" width="140" height="70" as="geometry" />
        </mxCell>
        <mxCell id="MjSA2ZEEbugR-J2bg2_--10" value="Use" style="endArrow=open;endSize=12;dashed=1;html=1;exitX=1;exitY=0.5;exitDx=0;exitDy=0;entryX=0;entryY=0.5;entryDx=0;entryDy=0;" parent="1" source="MjSA2ZEEbugR-J2bg2_--4" target="MjSA2ZEEbugR-J2bg2_--6" edge="1">
          <mxGeometry width="160" relative="1" as="geometry">
            <mxPoint x="360" y="500" as="sourcePoint" />
            <mxPoint x="520" y="500" as="targetPoint" />
          </mxGeometry>
        </mxCell>
        <mxCell id="MjSA2ZEEbugR-J2bg2_--11" value="Use" style="endArrow=open;endSize=12;dashed=1;html=1;exitX=1;exitY=0.5;exitDx=0;exitDy=0;entryX=0;entryY=0.5;entryDx=0;entryDy=0;" parent="1" source="MjSA2ZEEbugR-J2bg2_--4" target="MjSA2ZEEbugR-J2bg2_--7" edge="1">
          <mxGeometry width="160" relative="1" as="geometry">
            <mxPoint x="420" y="370" as="sourcePoint" />
            <mxPoint x="505.1968088033834" y="295.36749035783237" as="targetPoint" />
          </mxGeometry>
        </mxCell>
        <mxCell id="MjSA2ZEEbugR-J2bg2_--12" value="Use" style="endArrow=open;endSize=12;dashed=1;html=1;exitX=1;exitY=0.5;exitDx=0;exitDy=0;entryX=0;entryY=0.5;entryDx=0;entryDy=0;" parent="1" source="MjSA2ZEEbugR-J2bg2_--4" target="MjSA2ZEEbugR-J2bg2_--8" edge="1">
          <mxGeometry width="160" relative="1" as="geometry">
            <mxPoint x="430" y="380" as="sourcePoint" />
            <mxPoint x="515.1968088033834" y="305.36749035783237" as="targetPoint" />
          </mxGeometry>
        </mxCell>
        <mxCell id="MjSA2ZEEbugR-J2bg2_--13" value="Use" style="endArrow=open;endSize=12;dashed=1;html=1;exitX=1;exitY=0.5;exitDx=0;exitDy=0;entryX=0;entryY=0.5;entryDx=0;entryDy=0;" parent="1" source="MjSA2ZEEbugR-J2bg2_--4" target="MjSA2ZEEbugR-J2bg2_--9" edge="1">
          <mxGeometry width="160" relative="1" as="geometry">
            <mxPoint x="440" y="390" as="sourcePoint" />
            <mxPoint x="525.1968088033834" y="315.36749035783237" as="targetPoint" />
          </mxGeometry>
        </mxCell>
      </root>
    </mxGraphModel>
  </diagram>
  <diagram id="ukarMKEExvuun9PaH5dM" name="Activity: Igranje tresete">
    <mxGraphModel dx="1550" dy="1988" grid="1" gridSize="10" guides="1" tooltips="1" connect="1" arrows="1" fold="1" page="1" pageScale="1" pageWidth="850" pageHeight="1100" math="0" shadow="0">
      <root>
        <mxCell id="uR3n9-pZLwS0igjvZuAs-0" />
        <mxCell id="uR3n9-pZLwS0igjvZuAs-1" parent="uR3n9-pZLwS0igjvZuAs-0" />
        <mxCell id="uR3n9-pZLwS0igjvZuAs-2" value="" style="ellipse;html=1;shape=startState;fillColor=#000000;strokeColor=#ff0000;" parent="uR3n9-pZLwS0igjvZuAs-1" vertex="1">
          <mxGeometry x="355" y="-970" width="30" height="30" as="geometry" />
        </mxCell>
        <mxCell id="uR3n9-pZLwS0igjvZuAs-3" value="" style="edgeStyle=orthogonalEdgeStyle;html=1;verticalAlign=bottom;endArrow=open;endSize=8;strokeColor=#ff0000;" parent="uR3n9-pZLwS0igjvZuAs-1" source="uR3n9-pZLwS0igjvZuAs-2" edge="1">
          <mxGeometry relative="1" as="geometry">
            <mxPoint x="370" y="-870" as="targetPoint" />
          </mxGeometry>
        </mxCell>
        <mxCell id="uR3n9-pZLwS0igjvZuAs-4" value="Unos igrača" style="rounded=1;whiteSpace=wrap;html=1;arcSize=40;fontColor=#000000;fillColor=#ffffc0;strokeColor=#ff0000;" parent="uR3n9-pZLwS0igjvZuAs-1" vertex="1">
          <mxGeometry x="310" y="-880" width="120" height="40" as="geometry" />
        </mxCell>
        <mxCell id="uR3n9-pZLwS0igjvZuAs-5" value="" style="edgeStyle=orthogonalEdgeStyle;html=1;verticalAlign=bottom;endArrow=open;endSize=8;strokeColor=#ff0000;" parent="uR3n9-pZLwS0igjvZuAs-1" source="uR3n9-pZLwS0igjvZuAs-4" edge="1">
          <mxGeometry relative="1" as="geometry">
            <mxPoint x="370" y="-770" as="targetPoint" />
          </mxGeometry>
        </mxCell>
        <mxCell id="uR3n9-pZLwS0igjvZuAs-7" value="Dijeljenje karata" style="rounded=1;whiteSpace=wrap;html=1;arcSize=40;fontColor=#000000;fillColor=#ffffc0;strokeColor=#ff0000;" parent="uR3n9-pZLwS0igjvZuAs-1" vertex="1">
          <mxGeometry x="310" y="-770" width="120" height="40" as="geometry" />
        </mxCell>
        <mxCell id="uR3n9-pZLwS0igjvZuAs-8" value="" style="edgeStyle=orthogonalEdgeStyle;html=1;verticalAlign=bottom;endArrow=open;endSize=8;strokeColor=#ff0000;" parent="uR3n9-pZLwS0igjvZuAs-1" source="uR3n9-pZLwS0igjvZuAs-7" edge="1">
          <mxGeometry relative="1" as="geometry">
            <mxPoint x="370" y="-670" as="targetPoint" />
          </mxGeometry>
        </mxCell>
        <mxCell id="uR3n9-pZLwS0igjvZuAs-17" value="broj karata u ruci &amp;gt; 0" style="rhombus;whiteSpace=wrap;html=1;fillColor=#ffffc0;strokeColor=#ff0000;" parent="uR3n9-pZLwS0igjvZuAs-1" vertex="1">
          <mxGeometry x="325" y="-670" width="90" height="40" as="geometry" />
        </mxCell>
        <mxCell id="uR3n9-pZLwS0igjvZuAs-18" value="NE" style="edgeStyle=orthogonalEdgeStyle;html=1;align=left;verticalAlign=bottom;endArrow=open;endSize=8;strokeColor=#ff0000;" parent="uR3n9-pZLwS0igjvZuAs-1" source="uR3n9-pZLwS0igjvZuAs-17" target="uR3n9-pZLwS0igjvZuAs-20" edge="1">
          <mxGeometry x="-1" relative="1" as="geometry">
            <mxPoint x="515" y="-570" as="targetPoint" />
          </mxGeometry>
        </mxCell>
        <mxCell id="uR3n9-pZLwS0igjvZuAs-19" value="DA" style="edgeStyle=orthogonalEdgeStyle;html=1;align=left;verticalAlign=top;endArrow=open;endSize=8;strokeColor=#ff0000;entryX=0.5;entryY=0;entryDx=0;entryDy=0;" parent="uR3n9-pZLwS0igjvZuAs-1" source="uR3n9-pZLwS0igjvZuAs-17" target="uR3n9-pZLwS0igjvZuAs-29" edge="1">
          <mxGeometry x="-1" relative="1" as="geometry">
            <mxPoint x="375" y="-570" as="targetPoint" />
          </mxGeometry>
        </mxCell>
        <mxCell id="uR3n9-pZLwS0igjvZuAs-28" style="edgeStyle=orthogonalEdgeStyle;rounded=0;orthogonalLoop=1;jettySize=auto;html=1;exitX=0.5;exitY=1;exitDx=0;exitDy=0;entryX=0.5;entryY=0;entryDx=0;entryDy=0;" parent="uR3n9-pZLwS0igjvZuAs-1" source="uR3n9-pZLwS0igjvZuAs-20" target="uR3n9-pZLwS0igjvZuAs-21" edge="1">
          <mxGeometry relative="1" as="geometry" />
        </mxCell>
        <mxCell id="uR3n9-pZLwS0igjvZuAs-20" value="Bodovanje" style="rounded=1;whiteSpace=wrap;html=1;arcSize=40;fontColor=#000000;fillColor=#ffffc0;strokeColor=#ff0000;" parent="uR3n9-pZLwS0igjvZuAs-1" vertex="1">
          <mxGeometry x="495" y="-560" width="120" height="40" as="geometry" />
        </mxCell>
        <mxCell id="uR3n9-pZLwS0igjvZuAs-21" value="" style="ellipse;html=1;shape=endState;fillColor=#000000;strokeColor=#ff0000;" parent="uR3n9-pZLwS0igjvZuAs-1" vertex="1">
          <mxGeometry x="540" y="-460" width="30" height="30" as="geometry" />
        </mxCell>
        <mxCell id="uR3n9-pZLwS0igjvZuAs-31" style="edgeStyle=orthogonalEdgeStyle;rounded=0;orthogonalLoop=1;jettySize=auto;html=1;exitX=0;exitY=0.5;exitDx=0;exitDy=0;entryX=0;entryY=0.5;entryDx=0;entryDy=0;" parent="uR3n9-pZLwS0igjvZuAs-1" source="uR3n9-pZLwS0igjvZuAs-29" target="uR3n9-pZLwS0igjvZuAs-17" edge="1">
          <mxGeometry relative="1" as="geometry">
            <Array as="points">
              <mxPoint x="235" y="-550" />
              <mxPoint x="235" y="-650" />
            </Array>
          </mxGeometry>
        </mxCell>
        <mxCell id="uR3n9-pZLwS0igjvZuAs-29" value="Igranje ruke" style="rounded=1;whiteSpace=wrap;html=1;arcSize=40;fontColor=#000000;fillColor=#ffffc0;strokeColor=#ff0000;" parent="uR3n9-pZLwS0igjvZuAs-1" vertex="1">
          <mxGeometry x="310" y="-560" width="120" height="40" as="geometry" />
        </mxCell>
      </root>
    </mxGraphModel>
  </diagram>
  <diagram id="A4jbQiV3eGs2_ku9hFZB" name="Activity: Unos igrača">
    <mxGraphModel dx="1550" dy="888" grid="1" gridSize="10" guides="1" tooltips="1" connect="1" arrows="1" fold="1" page="1" pageScale="1" pageWidth="850" pageHeight="1100" math="0" shadow="0">
      <root>
        <mxCell id="LcD0vWBmEG_A1QQOMy2T-0" />
        <mxCell id="LcD0vWBmEG_A1QQOMy2T-1" parent="LcD0vWBmEG_A1QQOMy2T-0" />
        <mxCell id="hfwa08_G0doKV7f4fAPp-0" value="" style="ellipse;html=1;shape=startState;fillColor=#000000;strokeColor=#ff0000;" parent="LcD0vWBmEG_A1QQOMy2T-1" vertex="1">
          <mxGeometry x="368" y="60" width="30" height="30" as="geometry" />
        </mxCell>
        <mxCell id="hfwa08_G0doKV7f4fAPp-1" value="" style="edgeStyle=orthogonalEdgeStyle;html=1;verticalAlign=bottom;endArrow=open;endSize=8;strokeColor=#ff0000;" parent="LcD0vWBmEG_A1QQOMy2T-1" source="hfwa08_G0doKV7f4fAPp-0" edge="1">
          <mxGeometry relative="1" as="geometry">
            <mxPoint x="383" y="150" as="targetPoint" />
          </mxGeometry>
        </mxCell>
        <mxCell id="hfwa08_G0doKV7f4fAPp-11" style="edgeStyle=orthogonalEdgeStyle;rounded=0;orthogonalLoop=1;jettySize=auto;html=1;exitX=1;exitY=0.5;exitDx=0;exitDy=0;entryX=1;entryY=0.5;entryDx=0;entryDy=0;" parent="LcD0vWBmEG_A1QQOMy2T-1" source="hfwa08_G0doKV7f4fAPp-2" target="hfwa08_G0doKV7f4fAPp-2" edge="1">
          <mxGeometry relative="1" as="geometry">
            <mxPoint x="578" y="170" as="targetPoint" />
          </mxGeometry>
        </mxCell>
        <mxCell id="hfwa08_G0doKV7f4fAPp-2" value="Prikaz upita za unos imena" style="rounded=1;whiteSpace=wrap;html=1;arcSize=40;fontColor=#000000;fillColor=#ffffc0;strokeColor=#ff0000;" parent="LcD0vWBmEG_A1QQOMy2T-1" vertex="1">
          <mxGeometry x="323" y="150" width="120" height="40" as="geometry" />
        </mxCell>
        <mxCell id="hfwa08_G0doKV7f4fAPp-3" value="" style="edgeStyle=orthogonalEdgeStyle;html=1;verticalAlign=bottom;endArrow=open;endSize=8;strokeColor=#ff0000;" parent="LcD0vWBmEG_A1QQOMy2T-1" source="hfwa08_G0doKV7f4fAPp-2" edge="1">
          <mxGeometry relative="1" as="geometry">
            <mxPoint x="383" y="250" as="targetPoint" />
          </mxGeometry>
        </mxCell>
        <mxCell id="hfwa08_G0doKV7f4fAPp-4" value="Čekanje na unos imena" style="rounded=1;whiteSpace=wrap;html=1;arcSize=40;fontColor=#000000;fillColor=#ffffc0;strokeColor=#ff0000;" parent="LcD0vWBmEG_A1QQOMy2T-1" vertex="1">
          <mxGeometry x="323" y="250" width="120" height="40" as="geometry" />
        </mxCell>
        <mxCell id="hfwa08_G0doKV7f4fAPp-5" value="" style="edgeStyle=orthogonalEdgeStyle;html=1;verticalAlign=bottom;endArrow=open;endSize=8;strokeColor=#ff0000;" parent="LcD0vWBmEG_A1QQOMy2T-1" source="hfwa08_G0doKV7f4fAPp-4" edge="1">
          <mxGeometry relative="1" as="geometry">
            <mxPoint x="383" y="350" as="targetPoint" />
          </mxGeometry>
        </mxCell>
        <mxCell id="hfwa08_G0doKV7f4fAPp-6" value="Provjera unosa imena" style="rounded=1;whiteSpace=wrap;html=1;arcSize=40;fontColor=#000000;fillColor=#ffffc0;strokeColor=#ff0000;" parent="LcD0vWBmEG_A1QQOMy2T-1" vertex="1">
          <mxGeometry x="323" y="350" width="120" height="40" as="geometry" />
        </mxCell>
        <mxCell id="hfwa08_G0doKV7f4fAPp-7" value="" style="edgeStyle=orthogonalEdgeStyle;html=1;verticalAlign=bottom;endArrow=open;endSize=8;strokeColor=#ff0000;" parent="LcD0vWBmEG_A1QQOMy2T-1" source="hfwa08_G0doKV7f4fAPp-6" edge="1">
          <mxGeometry relative="1" as="geometry">
            <mxPoint x="383" y="450" as="targetPoint" />
          </mxGeometry>
        </mxCell>
        <mxCell id="hfwa08_G0doKV7f4fAPp-8" value="Uneseno je valjano ime?" style="rhombus;whiteSpace=wrap;html=1;fillColor=#ffffc0;strokeColor=#ff0000;" parent="LcD0vWBmEG_A1QQOMy2T-1" vertex="1">
          <mxGeometry x="343" y="450" width="80" height="40" as="geometry" />
        </mxCell>
        <mxCell id="hfwa08_G0doKV7f4fAPp-9" value="NE" style="edgeStyle=orthogonalEdgeStyle;html=1;align=left;verticalAlign=bottom;endArrow=open;endSize=8;strokeColor=#ff0000;entryX=1;entryY=0.5;entryDx=0;entryDy=0;" parent="LcD0vWBmEG_A1QQOMy2T-1" source="hfwa08_G0doKV7f4fAPp-8" target="hfwa08_G0doKV7f4fAPp-2" edge="1">
          <mxGeometry x="-1" relative="1" as="geometry">
            <mxPoint x="568" y="120" as="targetPoint" />
            <Array as="points">
              <mxPoint x="528" y="470" />
              <mxPoint x="528" y="170" />
            </Array>
          </mxGeometry>
        </mxCell>
        <mxCell id="hfwa08_G0doKV7f4fAPp-10" value="DA" style="edgeStyle=orthogonalEdgeStyle;html=1;align=left;verticalAlign=top;endArrow=open;endSize=8;strokeColor=#ff0000;" parent="LcD0vWBmEG_A1QQOMy2T-1" source="hfwa08_G0doKV7f4fAPp-8" edge="1">
          <mxGeometry x="-1" relative="1" as="geometry">
            <mxPoint x="383" y="570" as="targetPoint" />
            <Array as="points">
              <mxPoint x="383" y="550" />
            </Array>
          </mxGeometry>
        </mxCell>
        <mxCell id="wfJ4WPF9NZrWwJZrV17j-0" value="Učitavanje &quot;ingame&quot; korisničkog sučelja za igrača" style="rounded=1;whiteSpace=wrap;html=1;arcSize=40;fontColor=#000000;fillColor=#ffffc0;strokeColor=#ff0000;" parent="LcD0vWBmEG_A1QQOMy2T-1" vertex="1">
          <mxGeometry x="323" y="570" width="120" height="40" as="geometry" />
        </mxCell>
        <mxCell id="wfJ4WPF9NZrWwJZrV17j-1" value="" style="edgeStyle=orthogonalEdgeStyle;html=1;verticalAlign=bottom;endArrow=open;endSize=8;strokeColor=#ff0000;" parent="LcD0vWBmEG_A1QQOMy2T-1" source="wfJ4WPF9NZrWwJZrV17j-0" edge="1">
          <mxGeometry relative="1" as="geometry">
            <mxPoint x="383" y="670" as="targetPoint" />
          </mxGeometry>
        </mxCell>
        <mxCell id="wfJ4WPF9NZrWwJZrV17j-2" value="" style="ellipse;html=1;shape=endState;fillColor=#000000;strokeColor=#ff0000;" parent="LcD0vWBmEG_A1QQOMy2T-1" vertex="1">
          <mxGeometry x="368" y="670" width="30" height="30" as="geometry" />
        </mxCell>
      </root>
    </mxGraphModel>
  </diagram>
  <diagram id="WLYsfltKDfddUQN6L3Z4" name="Activity: Dijeljenje karata">
    <mxGraphModel dx="1550" dy="888" grid="1" gridSize="10" guides="1" tooltips="1" connect="1" arrows="1" fold="1" page="1" pageScale="1" pageWidth="850" pageHeight="1100" math="0" shadow="0">
      <root>
        <mxCell id="0AP0zJmIwXNZzOm0lqMq-0" />
        <mxCell id="0AP0zJmIwXNZzOm0lqMq-1" parent="0AP0zJmIwXNZzOm0lqMq-0" />
        <mxCell id="ro99kvMIIQ44E48RLCmR-0" value="" style="ellipse;html=1;shape=startState;fillColor=#000000;strokeColor=#ff0000;" parent="0AP0zJmIwXNZzOm0lqMq-1" vertex="1">
          <mxGeometry x="410" y="100" width="30" height="30" as="geometry" />
        </mxCell>
        <mxCell id="ro99kvMIIQ44E48RLCmR-1" value="" style="edgeStyle=orthogonalEdgeStyle;html=1;verticalAlign=bottom;endArrow=open;endSize=8;strokeColor=#ff0000;" parent="0AP0zJmIwXNZzOm0lqMq-1" source="ro99kvMIIQ44E48RLCmR-0" edge="1">
          <mxGeometry relative="1" as="geometry">
            <mxPoint x="425" y="190" as="targetPoint" />
          </mxGeometry>
        </mxCell>
        <mxCell id="ro99kvMIIQ44E48RLCmR-2" value="Sustav promješa karte" style="rounded=1;whiteSpace=wrap;html=1;arcSize=40;fontColor=#000000;fillColor=#ffffc0;strokeColor=#ff0000;" parent="0AP0zJmIwXNZzOm0lqMq-1" vertex="1">
          <mxGeometry x="365" y="550" width="120" height="40" as="geometry" />
        </mxCell>
        <mxCell id="ro99kvMIIQ44E48RLCmR-3" value="" style="edgeStyle=orthogonalEdgeStyle;html=1;verticalAlign=bottom;endArrow=open;endSize=8;strokeColor=#ff0000;" parent="0AP0zJmIwXNZzOm0lqMq-1" source="ro99kvMIIQ44E48RLCmR-2" edge="1">
          <mxGeometry relative="1" as="geometry">
            <mxPoint x="425" y="660" as="targetPoint" />
          </mxGeometry>
        </mxCell>
        <mxCell id="ro99kvMIIQ44E48RLCmR-6" value="" style="ellipse;html=1;shape=endState;fillColor=#000000;strokeColor=#ff0000;" parent="0AP0zJmIwXNZzOm0lqMq-1" vertex="1">
          <mxGeometry x="410" y="760" width="30" height="30" as="geometry" />
        </mxCell>
        <mxCell id="MRRsXrVzIFSJ7BbaRPid-1" value="Sustav provjerava je li ovo prvo miješanje u partiji" style="rounded=1;whiteSpace=wrap;html=1;arcSize=40;fontColor=#000000;fillColor=#ffffc0;strokeColor=#ff0000;" parent="0AP0zJmIwXNZzOm0lqMq-1" vertex="1">
          <mxGeometry x="365" y="190" width="120" height="50" as="geometry" />
        </mxCell>
        <mxCell id="MRRsXrVzIFSJ7BbaRPid-2" value="" style="edgeStyle=orthogonalEdgeStyle;html=1;verticalAlign=bottom;endArrow=open;endSize=8;strokeColor=#ff0000;entryX=0.5;entryY=0;entryDx=0;entryDy=0;" parent="0AP0zJmIwXNZzOm0lqMq-1" source="MRRsXrVzIFSJ7BbaRPid-1" target="zodhfKNtMZjm0Bnw0Zfp-0" edge="1">
          <mxGeometry relative="1" as="geometry">
            <mxPoint x="425" y="290" as="targetPoint" />
          </mxGeometry>
        </mxCell>
        <mxCell id="zodhfKNtMZjm0Bnw0Zfp-0" value="Condition" style="rhombus;whiteSpace=wrap;html=1;fillColor=#ffffc0;strokeColor=#ff0000;" parent="0AP0zJmIwXNZzOm0lqMq-1" vertex="1">
          <mxGeometry x="385" y="300" width="80" height="40" as="geometry" />
        </mxCell>
        <mxCell id="zodhfKNtMZjm0Bnw0Zfp-1" value="DA" style="edgeStyle=orthogonalEdgeStyle;html=1;align=left;verticalAlign=bottom;endArrow=open;endSize=8;strokeColor=#ff0000;" parent="0AP0zJmIwXNZzOm0lqMq-1" source="zodhfKNtMZjm0Bnw0Zfp-0" edge="1">
          <mxGeometry x="-1" relative="1" as="geometry">
            <mxPoint x="570" y="320" as="targetPoint" />
          </mxGeometry>
        </mxCell>
        <mxCell id="zodhfKNtMZjm0Bnw0Zfp-2" value="NE" style="edgeStyle=orthogonalEdgeStyle;html=1;align=left;verticalAlign=top;endArrow=open;endSize=8;strokeColor=#ff0000;" parent="0AP0zJmIwXNZzOm0lqMq-1" source="zodhfKNtMZjm0Bnw0Zfp-0" edge="1">
          <mxGeometry x="-1" relative="1" as="geometry">
            <mxPoint x="425" y="400" as="targetPoint" />
            <Array as="points">
              <mxPoint x="425" y="400" />
            </Array>
          </mxGeometry>
        </mxCell>
        <mxCell id="zodhfKNtMZjm0Bnw0Zfp-5" value="Sustav postavlja sljedečeg igrača prema prijašnjem sljedečem igraču iz prošlog mješanja" style="rounded=1;whiteSpace=wrap;html=1;arcSize=40;fontColor=#000000;fillColor=#ffffc0;strokeColor=#ff0000;" parent="0AP0zJmIwXNZzOm0lqMq-1" vertex="1">
          <mxGeometry x="365" y="400" width="120" height="80" as="geometry" />
        </mxCell>
        <mxCell id="zodhfKNtMZjm0Bnw0Zfp-6" value="" style="edgeStyle=orthogonalEdgeStyle;html=1;verticalAlign=bottom;endArrow=open;endSize=8;strokeColor=#ff0000;" parent="0AP0zJmIwXNZzOm0lqMq-1" source="zodhfKNtMZjm0Bnw0Zfp-5" edge="1">
          <mxGeometry relative="1" as="geometry">
            <mxPoint x="425" y="550" as="targetPoint" />
          </mxGeometry>
        </mxCell>
        <mxCell id="zodhfKNtMZjm0Bnw0Zfp-7" value="Sustav nasumice postavlja sljedećeg igrača" style="rounded=1;whiteSpace=wrap;html=1;arcSize=40;fontColor=#000000;fillColor=#ffffc0;strokeColor=#ff0000;" parent="0AP0zJmIwXNZzOm0lqMq-1" vertex="1">
          <mxGeometry x="570" y="300" width="120" height="40" as="geometry" />
        </mxCell>
        <mxCell id="zodhfKNtMZjm0Bnw0Zfp-8" value="" style="edgeStyle=orthogonalEdgeStyle;html=1;verticalAlign=bottom;endArrow=open;endSize=8;strokeColor=#ff0000;entryX=1;entryY=0.5;entryDx=0;entryDy=0;" parent="0AP0zJmIwXNZzOm0lqMq-1" source="zodhfKNtMZjm0Bnw0Zfp-7" target="ro99kvMIIQ44E48RLCmR-2" edge="1">
          <mxGeometry relative="1" as="geometry">
            <mxPoint x="630" y="400" as="targetPoint" />
            <Array as="points">
              <mxPoint x="630" y="570" />
            </Array>
          </mxGeometry>
        </mxCell>
        <mxCell id="zodhfKNtMZjm0Bnw0Zfp-10" value="Sustav podijeli karte igračima" style="rounded=1;whiteSpace=wrap;html=1;arcSize=40;fontColor=#000000;fillColor=#ffffc0;strokeColor=#ff0000;" parent="0AP0zJmIwXNZzOm0lqMq-1" vertex="1">
          <mxGeometry x="365" y="660" width="120" height="40" as="geometry" />
        </mxCell>
        <mxCell id="zodhfKNtMZjm0Bnw0Zfp-11" value="" style="edgeStyle=orthogonalEdgeStyle;html=1;verticalAlign=bottom;endArrow=open;endSize=8;strokeColor=#ff0000;" parent="0AP0zJmIwXNZzOm0lqMq-1" source="zodhfKNtMZjm0Bnw0Zfp-10" edge="1">
          <mxGeometry relative="1" as="geometry">
            <mxPoint x="425" y="760" as="targetPoint" />
          </mxGeometry>
        </mxCell>
      </root>
    </mxGraphModel>
  </diagram>
  <diagram id="D-63xcbVy0WQUEL_0c_6" name="Activity: Igranje kruga">
    <mxGraphModel dx="1550" dy="888" grid="1" gridSize="10" guides="1" tooltips="1" connect="1" arrows="1" fold="1" page="1" pageScale="1" pageWidth="1169" pageHeight="1654" math="0" shadow="0">
      <root>
        <mxCell id="c0qY6PS-3ENuRapn7kGE-0" />
        <mxCell id="c0qY6PS-3ENuRapn7kGE-1" parent="c0qY6PS-3ENuRapn7kGE-0" />
        <mxCell id="c0qY6PS-3ENuRapn7kGE-2" value="" style="ellipse;html=1;shape=startState;fillColor=#000000;strokeColor=#ff0000;" parent="c0qY6PS-3ENuRapn7kGE-1" vertex="1">
          <mxGeometry x="570" y="70" width="30" height="30" as="geometry" />
        </mxCell>
        <mxCell id="c0qY6PS-3ENuRapn7kGE-3" value="" style="edgeStyle=orthogonalEdgeStyle;html=1;verticalAlign=bottom;endArrow=open;endSize=8;strokeColor=#ff0000;" parent="c0qY6PS-3ENuRapn7kGE-1" source="c0qY6PS-3ENuRapn7kGE-2" edge="1">
          <mxGeometry relative="1" as="geometry">
            <mxPoint x="585" y="160" as="targetPoint" />
          </mxGeometry>
        </mxCell>
        <mxCell id="gtamYvuTOR9kD9Namd5O-0" value="Sustav provjerava jesu li svi igrači odigrali kartu" style="rounded=1;whiteSpace=wrap;html=1;arcSize=40;fontColor=#000000;fillColor=#ffffc0;strokeColor=#ff0000;" parent="c0qY6PS-3ENuRapn7kGE-1" vertex="1">
          <mxGeometry x="525" y="160" width="120" height="40" as="geometry" />
        </mxCell>
        <mxCell id="gtamYvuTOR9kD9Namd5O-1" value="" style="edgeStyle=orthogonalEdgeStyle;html=1;verticalAlign=bottom;endArrow=open;endSize=8;strokeColor=#ff0000;entryX=0.5;entryY=0;entryDx=0;entryDy=0;" parent="c0qY6PS-3ENuRapn7kGE-1" source="gtamYvuTOR9kD9Namd5O-0" target="z6BdOLi_ZoAXBo8GZsD8-0" edge="1">
          <mxGeometry relative="1" as="geometry">
            <mxPoint x="585" y="260" as="targetPoint" />
          </mxGeometry>
        </mxCell>
        <mxCell id="z6BdOLi_ZoAXBo8GZsD8-0" value="Sve karte odigrane?" style="rhombus;whiteSpace=wrap;html=1;fillColor=#ffffc0;strokeColor=#ff0000;" parent="c0qY6PS-3ENuRapn7kGE-1" vertex="1">
          <mxGeometry x="545" y="260" width="80" height="40" as="geometry" />
        </mxCell>
        <mxCell id="z6BdOLi_ZoAXBo8GZsD8-1" value="DA" style="edgeStyle=orthogonalEdgeStyle;html=1;align=left;verticalAlign=bottom;endArrow=open;endSize=8;strokeColor=#ff0000;" parent="c0qY6PS-3ENuRapn7kGE-1" source="z6BdOLi_ZoAXBo8GZsD8-0" edge="1">
          <mxGeometry x="-1" relative="1" as="geometry">
            <mxPoint x="730" y="280" as="targetPoint" />
          </mxGeometry>
        </mxCell>
        <mxCell id="z6BdOLi_ZoAXBo8GZsD8-2" value="NE" style="edgeStyle=orthogonalEdgeStyle;html=1;align=left;verticalAlign=top;endArrow=open;endSize=8;strokeColor=#ff0000;" parent="c0qY6PS-3ENuRapn7kGE-1" source="z6BdOLi_ZoAXBo8GZsD8-0" edge="1">
          <mxGeometry x="-1" relative="1" as="geometry">
            <mxPoint x="585" y="360" as="targetPoint" />
            <Array as="points">
              <mxPoint x="585" y="360" />
            </Array>
          </mxGeometry>
        </mxCell>
        <mxCell id="z6BdOLi_ZoAXBo8GZsD8-4" value="Evaluacija odigranog kruga" style="rounded=1;whiteSpace=wrap;html=1;arcSize=40;fontColor=#000000;fillColor=#ffffc0;strokeColor=#ff0000;" parent="c0qY6PS-3ENuRapn7kGE-1" vertex="1">
          <mxGeometry x="730" y="260" width="120" height="40" as="geometry" />
        </mxCell>
        <mxCell id="z6BdOLi_ZoAXBo8GZsD8-5" value="" style="edgeStyle=orthogonalEdgeStyle;html=1;verticalAlign=bottom;endArrow=open;endSize=8;strokeColor=#ff0000;" parent="c0qY6PS-3ENuRapn7kGE-1" source="z6BdOLi_ZoAXBo8GZsD8-4" edge="1">
          <mxGeometry relative="1" as="geometry">
            <mxPoint x="790" y="360" as="targetPoint" />
          </mxGeometry>
        </mxCell>
        <mxCell id="z6BdOLi_ZoAXBo8GZsD8-6" value="Igranje karte sljedećeg igrača" style="rounded=1;whiteSpace=wrap;html=1;arcSize=40;fontColor=#000000;fillColor=#ffffc0;strokeColor=#ff0000;" parent="c0qY6PS-3ENuRapn7kGE-1" vertex="1">
          <mxGeometry x="525" y="360" width="120" height="40" as="geometry" />
        </mxCell>
        <mxCell id="z6BdOLi_ZoAXBo8GZsD8-7" value="" style="edgeStyle=orthogonalEdgeStyle;html=1;verticalAlign=bottom;endArrow=open;endSize=8;strokeColor=#ff0000;entryX=0;entryY=0.5;entryDx=0;entryDy=0;" parent="c0qY6PS-3ENuRapn7kGE-1" source="z6BdOLi_ZoAXBo8GZsD8-6" target="gtamYvuTOR9kD9Namd5O-0" edge="1">
          <mxGeometry relative="1" as="geometry">
            <mxPoint x="490" y="380" as="targetPoint" />
            <Array as="points">
              <mxPoint x="470" y="380" />
              <mxPoint x="470" y="180" />
            </Array>
          </mxGeometry>
        </mxCell>
        <mxCell id="pAMjA6GXvtW1vppzFepi-0" value="" style="ellipse;html=1;shape=endState;fillColor=#000000;strokeColor=#ff0000;" parent="c0qY6PS-3ENuRapn7kGE-1" vertex="1">
          <mxGeometry x="775" y="360" width="30" height="30" as="geometry" />
        </mxCell>
      </root>
    </mxGraphModel>
  </diagram>
  <diagram id="dI0CorhLxCPWXTXeC1Ox" name="Activity: Igranje karte sljedećeg igrača">
    <mxGraphModel dx="1550" dy="888" grid="1" gridSize="10" guides="1" tooltips="1" connect="1" arrows="1" fold="1" page="1" pageScale="1" pageWidth="1169" pageHeight="1654" math="0" shadow="0">
      <root>
        <mxCell id="6NPqmbId2nZFuEMeBqPy-0" />
        <mxCell id="6NPqmbId2nZFuEMeBqPy-1" parent="6NPqmbId2nZFuEMeBqPy-0" />
        <mxCell id="hxfDnFJaBfCQkdYLFo8Q-0" value="" style="ellipse;html=1;shape=startState;fillColor=#000000;strokeColor=#ff0000;" parent="6NPqmbId2nZFuEMeBqPy-1" vertex="1">
          <mxGeometry x="385" y="30" width="30" height="30" as="geometry" />
        </mxCell>
        <mxCell id="hxfDnFJaBfCQkdYLFo8Q-1" value="" style="edgeStyle=orthogonalEdgeStyle;html=1;verticalAlign=bottom;endArrow=open;endSize=8;strokeColor=#ff0000;" parent="6NPqmbId2nZFuEMeBqPy-1" source="hxfDnFJaBfCQkdYLFo8Q-0" edge="1">
          <mxGeometry relative="1" as="geometry">
            <mxPoint x="400" y="120" as="targetPoint" />
          </mxGeometry>
        </mxCell>
        <mxCell id="hxfDnFJaBfCQkdYLFo8Q-2" value="Prvi krug?" style="rhombus;whiteSpace=wrap;html=1;fillColor=#ffffc0;strokeColor=#ff0000;" parent="6NPqmbId2nZFuEMeBqPy-1" vertex="1">
          <mxGeometry x="360" y="220" width="80" height="40" as="geometry" />
        </mxCell>
        <mxCell id="hxfDnFJaBfCQkdYLFo8Q-3" value="DA" style="edgeStyle=orthogonalEdgeStyle;html=1;align=left;verticalAlign=bottom;endArrow=open;endSize=8;strokeColor=#ff0000;" parent="6NPqmbId2nZFuEMeBqPy-1" source="hxfDnFJaBfCQkdYLFo8Q-2" edge="1">
          <mxGeometry x="-1" relative="1" as="geometry">
            <mxPoint x="555" y="240" as="targetPoint" />
            <Array as="points">
              <mxPoint x="545" y="240" />
            </Array>
          </mxGeometry>
        </mxCell>
        <mxCell id="hxfDnFJaBfCQkdYLFo8Q-4" value="NE" style="edgeStyle=orthogonalEdgeStyle;html=1;align=left;verticalAlign=top;endArrow=open;endSize=8;strokeColor=#ff0000;entryX=0.5;entryY=0;entryDx=0;entryDy=0;" parent="6NPqmbId2nZFuEMeBqPy-1" source="hxfDnFJaBfCQkdYLFo8Q-2" target="WKlv2sXDrtHM4SdW5u-5-0" edge="1">
          <mxGeometry x="-1" y="-20" relative="1" as="geometry">
            <mxPoint x="400" y="390" as="targetPoint" />
            <Array as="points" />
            <mxPoint x="20" y="-20" as="offset" />
          </mxGeometry>
        </mxCell>
        <mxCell id="hxfDnFJaBfCQkdYLFo8Q-5" value="Sustav provjerava je li krug u tijeku prvi krug" style="rounded=1;whiteSpace=wrap;html=1;arcSize=40;fontColor=#000000;fillColor=#ffffc0;strokeColor=#ff0000;" parent="6NPqmbId2nZFuEMeBqPy-1" vertex="1">
          <mxGeometry x="340" y="120" width="120" height="40" as="geometry" />
        </mxCell>
        <mxCell id="hxfDnFJaBfCQkdYLFo8Q-6" value="" style="edgeStyle=orthogonalEdgeStyle;html=1;verticalAlign=bottom;endArrow=open;endSize=8;strokeColor=#ff0000;" parent="6NPqmbId2nZFuEMeBqPy-1" source="hxfDnFJaBfCQkdYLFo8Q-5" edge="1">
          <mxGeometry relative="1" as="geometry">
            <mxPoint x="400" y="220" as="targetPoint" />
          </mxGeometry>
        </mxCell>
        <mxCell id="q8TGL3vR6AbXiMYOGjS3-0" value="Sustav otvara dijalog za unos zvanja" style="rounded=1;whiteSpace=wrap;html=1;arcSize=40;fontColor=#000000;fillColor=#ffffc0;strokeColor=#ff0000;" parent="6NPqmbId2nZFuEMeBqPy-1" vertex="1">
          <mxGeometry x="555" y="220" width="120" height="40" as="geometry" />
        </mxCell>
        <mxCell id="q8TGL3vR6AbXiMYOGjS3-1" value="" style="edgeStyle=orthogonalEdgeStyle;html=1;verticalAlign=bottom;endArrow=open;endSize=8;strokeColor=#ff0000;" parent="6NPqmbId2nZFuEMeBqPy-1" source="q8TGL3vR6AbXiMYOGjS3-0" edge="1">
          <mxGeometry relative="1" as="geometry">
            <mxPoint x="615" y="320" as="targetPoint" />
          </mxGeometry>
        </mxCell>
        <mxCell id="q8TGL3vR6AbXiMYOGjS3-2" value="Igrač od karata u ruci označava one koje mogu biti zvanje" style="rounded=1;whiteSpace=wrap;html=1;arcSize=40;fontColor=#000000;fillColor=#ffffc0;strokeColor=#ff0000;" parent="6NPqmbId2nZFuEMeBqPy-1" vertex="1">
          <mxGeometry x="730" y="420" width="120" height="40" as="geometry" />
        </mxCell>
        <mxCell id="q8TGL3vR6AbXiMYOGjS3-3" value="" style="edgeStyle=orthogonalEdgeStyle;html=1;verticalAlign=bottom;endArrow=open;endSize=8;strokeColor=#ff0000;" parent="6NPqmbId2nZFuEMeBqPy-1" source="q8TGL3vR6AbXiMYOGjS3-2" edge="1">
          <mxGeometry relative="1" as="geometry">
            <mxPoint x="790" y="520" as="targetPoint" />
          </mxGeometry>
        </mxCell>
        <mxCell id="q8TGL3vR6AbXiMYOGjS3-4" value="Sustav provjerava tvore li označene karte validno zvanje" style="rounded=1;whiteSpace=wrap;html=1;arcSize=40;fontColor=#000000;fillColor=#ffffc0;strokeColor=#ff0000;" parent="6NPqmbId2nZFuEMeBqPy-1" vertex="1">
          <mxGeometry x="730" y="520" width="120" height="40" as="geometry" />
        </mxCell>
        <mxCell id="q8TGL3vR6AbXiMYOGjS3-5" value="" style="edgeStyle=orthogonalEdgeStyle;html=1;verticalAlign=bottom;endArrow=open;endSize=8;strokeColor=#ff0000;" parent="6NPqmbId2nZFuEMeBqPy-1" source="q8TGL3vR6AbXiMYOGjS3-4" edge="1">
          <mxGeometry relative="1" as="geometry">
            <mxPoint x="790" y="620" as="targetPoint" />
          </mxGeometry>
        </mxCell>
        <mxCell id="q8TGL3vR6AbXiMYOGjS3-9" value="Sustav igraču odgovara o validnosti unosa" style="rounded=1;whiteSpace=wrap;html=1;arcSize=40;fontColor=#000000;fillColor=#ffffc0;strokeColor=#ff0000;" parent="6NPqmbId2nZFuEMeBqPy-1" vertex="1">
          <mxGeometry x="730" y="620" width="120" height="40" as="geometry" />
        </mxCell>
        <mxCell id="q8TGL3vR6AbXiMYOGjS3-10" value="" style="edgeStyle=orthogonalEdgeStyle;html=1;verticalAlign=bottom;endArrow=open;endSize=8;strokeColor=#ff0000;entryX=1;entryY=0.5;entryDx=0;entryDy=0;" parent="6NPqmbId2nZFuEMeBqPy-1" source="q8TGL3vR6AbXiMYOGjS3-9" target="q8TGL3vR6AbXiMYOGjS3-0" edge="1">
          <mxGeometry relative="1" as="geometry">
            <mxPoint x="1000" y="200" as="targetPoint" />
            <Array as="points">
              <mxPoint x="930" y="640" />
              <mxPoint x="930" y="240" />
            </Array>
          </mxGeometry>
        </mxCell>
        <mxCell id="q8TGL3vR6AbXiMYOGjS3-13" value="Korisnik sustavu odgovara želi li unijeti zvanje" style="rounded=1;whiteSpace=wrap;html=1;arcSize=40;fontColor=#000000;fillColor=#ffffc0;strokeColor=#ff0000;" parent="6NPqmbId2nZFuEMeBqPy-1" vertex="1">
          <mxGeometry x="555" y="320" width="120" height="40" as="geometry" />
        </mxCell>
        <mxCell id="q8TGL3vR6AbXiMYOGjS3-14" value="" style="edgeStyle=orthogonalEdgeStyle;html=1;verticalAlign=bottom;endArrow=open;endSize=8;strokeColor=#ff0000;entryX=0.5;entryY=0;entryDx=0;entryDy=0;" parent="6NPqmbId2nZFuEMeBqPy-1" source="q8TGL3vR6AbXiMYOGjS3-13" target="q8TGL3vR6AbXiMYOGjS3-15" edge="1">
          <mxGeometry relative="1" as="geometry">
            <mxPoint x="615" y="420" as="targetPoint" />
          </mxGeometry>
        </mxCell>
        <mxCell id="q8TGL3vR6AbXiMYOGjS3-15" value="Unos zvanja?" style="rhombus;whiteSpace=wrap;html=1;fillColor=#ffffc0;strokeColor=#ff0000;" parent="6NPqmbId2nZFuEMeBqPy-1" vertex="1">
          <mxGeometry x="575" y="420" width="80" height="40" as="geometry" />
        </mxCell>
        <mxCell id="q8TGL3vR6AbXiMYOGjS3-16" value="DA" style="edgeStyle=orthogonalEdgeStyle;html=1;align=left;verticalAlign=bottom;endArrow=open;endSize=8;strokeColor=#ff0000;" parent="6NPqmbId2nZFuEMeBqPy-1" source="q8TGL3vR6AbXiMYOGjS3-15" edge="1">
          <mxGeometry x="-1" relative="1" as="geometry">
            <mxPoint x="730" y="440" as="targetPoint" />
          </mxGeometry>
        </mxCell>
        <mxCell id="q8TGL3vR6AbXiMYOGjS3-17" value="NE" style="edgeStyle=orthogonalEdgeStyle;html=1;align=left;verticalAlign=top;endArrow=open;endSize=8;strokeColor=#ff0000;exitX=0;exitY=0.5;exitDx=0;exitDy=0;entryX=1;entryY=0.5;entryDx=0;entryDy=0;" parent="6NPqmbId2nZFuEMeBqPy-1" source="q8TGL3vR6AbXiMYOGjS3-15" target="WKlv2sXDrtHM4SdW5u-5-0" edge="1">
          <mxGeometry x="-1" relative="1" as="geometry">
            <mxPoint x="530" y="440" as="targetPoint" />
            <Array as="points">
              <mxPoint x="460" y="440" />
            </Array>
          </mxGeometry>
        </mxCell>
        <mxCell id="oqeb2sAxPioYKDgU9shy-0" value="Sustav otvara dijalog za unos karte koja će biti odigrana" style="rounded=1;whiteSpace=wrap;html=1;arcSize=40;fontColor=#000000;fillColor=#ffffc0;strokeColor=#ff0000;" parent="6NPqmbId2nZFuEMeBqPy-1" vertex="1">
          <mxGeometry x="340" y="652" width="120" height="40" as="geometry" />
        </mxCell>
        <mxCell id="oqeb2sAxPioYKDgU9shy-1" value="" style="edgeStyle=orthogonalEdgeStyle;html=1;verticalAlign=bottom;endArrow=open;endSize=8;strokeColor=#ff0000;" parent="6NPqmbId2nZFuEMeBqPy-1" source="oqeb2sAxPioYKDgU9shy-0" edge="1">
          <mxGeometry relative="1" as="geometry">
            <mxPoint x="400" y="762" as="targetPoint" />
          </mxGeometry>
        </mxCell>
        <mxCell id="oqeb2sAxPioYKDgU9shy-3" value="" style="edgeStyle=orthogonalEdgeStyle;html=1;verticalAlign=bottom;endArrow=open;endSize=8;strokeColor=#ff0000;" parent="6NPqmbId2nZFuEMeBqPy-1" edge="1">
          <mxGeometry relative="1" as="geometry">
            <mxPoint x="400" y="862" as="targetPoint" />
            <mxPoint x="400" y="802" as="sourcePoint" />
          </mxGeometry>
        </mxCell>
        <mxCell id="oqeb2sAxPioYKDgU9shy-4" value="Igrač od karata u ruci označava onu koju želi odigrati" style="rounded=1;whiteSpace=wrap;html=1;arcSize=40;fontColor=#000000;fillColor=#ffffc0;strokeColor=#ff0000;" parent="6NPqmbId2nZFuEMeBqPy-1" vertex="1">
          <mxGeometry x="340" y="762" width="120" height="40" as="geometry" />
        </mxCell>
        <mxCell id="oqeb2sAxPioYKDgU9shy-5" value="Sustav zabilježava odigranu kartu" style="rounded=1;whiteSpace=wrap;html=1;arcSize=40;fontColor=#000000;fillColor=#ffffc0;strokeColor=#ff0000;" parent="6NPqmbId2nZFuEMeBqPy-1" vertex="1">
          <mxGeometry x="340" y="862" width="120" height="40" as="geometry" />
        </mxCell>
        <mxCell id="oqeb2sAxPioYKDgU9shy-6" value="" style="edgeStyle=orthogonalEdgeStyle;html=1;verticalAlign=bottom;endArrow=open;endSize=8;strokeColor=#ff0000;entryX=0.5;entryY=0;entryDx=0;entryDy=0;" parent="6NPqmbId2nZFuEMeBqPy-1" source="oqeb2sAxPioYKDgU9shy-5" target="aeC5Q3m-xW2lrA8mAA2f-0" edge="1">
          <mxGeometry relative="1" as="geometry">
            <mxPoint x="400" y="962" as="targetPoint" />
          </mxGeometry>
        </mxCell>
        <mxCell id="aeC5Q3m-xW2lrA8mAA2f-0" value="" style="ellipse;html=1;shape=endState;fillColor=#000000;strokeColor=#ff0000;" parent="6NPqmbId2nZFuEMeBqPy-1" vertex="1">
          <mxGeometry x="385" y="972" width="30" height="30" as="geometry" />
        </mxCell>
        <mxCell id="WKlv2sXDrtHM4SdW5u-5-0" value="Sustav provjerava je li igrač prvi na redu za igrati" style="rounded=1;whiteSpace=wrap;html=1;arcSize=40;fontColor=#000000;fillColor=#ffffc0;strokeColor=#ff0000;" vertex="1" parent="6NPqmbId2nZFuEMeBqPy-1">
          <mxGeometry x="340" y="415" width="120" height="50" as="geometry" />
        </mxCell>
        <mxCell id="WKlv2sXDrtHM4SdW5u-5-1" value="" style="edgeStyle=orthogonalEdgeStyle;html=1;verticalAlign=bottom;endArrow=open;endSize=8;strokeColor=#ff0000;" edge="1" source="WKlv2sXDrtHM4SdW5u-5-0" parent="6NPqmbId2nZFuEMeBqPy-1">
          <mxGeometry relative="1" as="geometry">
            <mxPoint x="400" y="530" as="targetPoint" />
          </mxGeometry>
        </mxCell>
        <mxCell id="WKlv2sXDrtHM4SdW5u-5-2" value="Prvi na redu?" style="rhombus;whiteSpace=wrap;html=1;fillColor=#ffffc0;strokeColor=#ff0000;" vertex="1" parent="6NPqmbId2nZFuEMeBqPy-1">
          <mxGeometry x="360" y="530" width="80" height="40" as="geometry" />
        </mxCell>
        <mxCell id="WKlv2sXDrtHM4SdW5u-5-6" value="NE" style="edgeStyle=orthogonalEdgeStyle;html=1;verticalAlign=bottom;endArrow=open;endSize=8;strokeColor=#ff0000;" edge="1" parent="6NPqmbId2nZFuEMeBqPy-1">
          <mxGeometry relative="1" as="geometry">
            <mxPoint x="400" y="650" as="targetPoint" />
            <mxPoint x="399.5" y="570" as="sourcePoint" />
            <Array as="points">
              <mxPoint x="400" y="590" />
              <mxPoint x="400" y="590" />
            </Array>
          </mxGeometry>
        </mxCell>
        <mxCell id="WKlv2sXDrtHM4SdW5u-5-7" value="Sustav otvara dijalog za unos motiranja" style="rounded=1;whiteSpace=wrap;html=1;arcSize=40;fontColor=#000000;fillColor=#ffffc0;strokeColor=#ff0000;" vertex="1" parent="6NPqmbId2nZFuEMeBqPy-1">
          <mxGeometry x="130" y="530" width="120" height="40" as="geometry" />
        </mxCell>
        <mxCell id="WKlv2sXDrtHM4SdW5u-5-8" value="" style="edgeStyle=orthogonalEdgeStyle;html=1;verticalAlign=bottom;endArrow=open;endSize=8;strokeColor=#ff0000;entryX=0.5;entryY=0;entryDx=0;entryDy=0;" edge="1" source="WKlv2sXDrtHM4SdW5u-5-7" parent="6NPqmbId2nZFuEMeBqPy-1" target="WKlv2sXDrtHM4SdW5u-5-12">
          <mxGeometry relative="1" as="geometry">
            <mxPoint x="190" y="630" as="targetPoint" />
            <Array as="points" />
          </mxGeometry>
        </mxCell>
        <mxCell id="WKlv2sXDrtHM4SdW5u-5-11" value="DA" style="edgeStyle=orthogonalEdgeStyle;html=1;align=left;verticalAlign=top;endArrow=open;endSize=8;strokeColor=#ff0000;entryX=1;entryY=0.5;entryDx=0;entryDy=0;exitX=0;exitY=0.5;exitDx=0;exitDy=0;" edge="1" parent="6NPqmbId2nZFuEMeBqPy-1" source="WKlv2sXDrtHM4SdW5u-5-2" target="WKlv2sXDrtHM4SdW5u-5-7">
          <mxGeometry x="-1" relative="1" as="geometry">
            <mxPoint x="330" y="510" as="targetPoint" />
            <Array as="points" />
            <mxPoint x="340" y="550" as="sourcePoint" />
          </mxGeometry>
        </mxCell>
        <mxCell id="WKlv2sXDrtHM4SdW5u-5-12" value="Igrač unosi mot ili manjak mota" style="rounded=1;whiteSpace=wrap;html=1;arcSize=40;fontColor=#000000;fillColor=#ffffc0;strokeColor=#ff0000;" vertex="1" parent="6NPqmbId2nZFuEMeBqPy-1">
          <mxGeometry x="130" y="650" width="120" height="40" as="geometry" />
        </mxCell>
        <mxCell id="WKlv2sXDrtHM4SdW5u-5-13" value="Sustav zabilježava mot" style="rounded=1;whiteSpace=wrap;html=1;arcSize=40;fontColor=#000000;fillColor=#ffffc0;strokeColor=#ff0000;" vertex="1" parent="6NPqmbId2nZFuEMeBqPy-1">
          <mxGeometry x="130" y="780" width="120" height="40" as="geometry" />
        </mxCell>
        <mxCell id="WKlv2sXDrtHM4SdW5u-5-14" value="" style="edgeStyle=orthogonalEdgeStyle;html=1;verticalAlign=bottom;endArrow=open;endSize=8;strokeColor=#ff0000;exitX=0.5;exitY=1;exitDx=0;exitDy=0;entryX=0.5;entryY=0;entryDx=0;entryDy=0;" edge="1" parent="6NPqmbId2nZFuEMeBqPy-1" source="WKlv2sXDrtHM4SdW5u-5-12" target="WKlv2sXDrtHM4SdW5u-5-13">
          <mxGeometry relative="1" as="geometry">
            <mxPoint x="260" y="720" as="targetPoint" />
            <mxPoint x="189.5" y="710" as="sourcePoint" />
            <Array as="points" />
          </mxGeometry>
        </mxCell>
        <mxCell id="WKlv2sXDrtHM4SdW5u-5-15" value="" style="edgeStyle=orthogonalEdgeStyle;html=1;verticalAlign=bottom;endArrow=open;endSize=8;strokeColor=#ff0000;entryX=0;entryY=0.5;entryDx=0;entryDy=0;exitX=1;exitY=0.5;exitDx=0;exitDy=0;" edge="1" parent="6NPqmbId2nZFuEMeBqPy-1" source="WKlv2sXDrtHM4SdW5u-5-13" target="oqeb2sAxPioYKDgU9shy-0">
          <mxGeometry relative="1" as="geometry">
            <mxPoint x="210" y="670" as="targetPoint" />
            <mxPoint x="210" y="590" as="sourcePoint" />
            <Array as="points" />
          </mxGeometry>
        </mxCell>
      </root>
    </mxGraphModel>
  </diagram>
  <diagram id="_0l10UQx-oh5KF7xBDwH" name="Activity: Evaluacija odigranog kruga">
    <mxGraphModel dx="1550" dy="888" grid="1" gridSize="10" guides="1" tooltips="1" connect="1" arrows="1" fold="1" page="1" pageScale="1" pageWidth="1169" pageHeight="1654" math="0" shadow="0">
      <root>
        <mxCell id="k3D_p9H_ID8sKr_7_CLb-0" />
        <mxCell id="k3D_p9H_ID8sKr_7_CLb-1" parent="k3D_p9H_ID8sKr_7_CLb-0" />
        <mxCell id="dYx_uWbWNn98jqYdyQUA-3" value="" style="ellipse;html=1;shape=startState;fillColor=#000000;strokeColor=#ff0000;" parent="k3D_p9H_ID8sKr_7_CLb-1" vertex="1">
          <mxGeometry x="570" y="100" width="30" height="30" as="geometry" />
        </mxCell>
        <mxCell id="dYx_uWbWNn98jqYdyQUA-4" value="" style="edgeStyle=orthogonalEdgeStyle;html=1;verticalAlign=bottom;endArrow=open;endSize=8;strokeColor=#ff0000;" parent="k3D_p9H_ID8sKr_7_CLb-1" source="dYx_uWbWNn98jqYdyQUA-3" edge="1">
          <mxGeometry relative="1" as="geometry">
            <mxPoint x="585" y="190" as="targetPoint" />
          </mxGeometry>
        </mxCell>
        <mxCell id="dYx_uWbWNn98jqYdyQUA-5" value="Sustav provjerava koji je par osvojio odigrani krug" style="rounded=1;whiteSpace=wrap;html=1;arcSize=40;fontColor=#000000;fillColor=#ffffc0;strokeColor=#ff0000;" parent="k3D_p9H_ID8sKr_7_CLb-1" vertex="1">
          <mxGeometry x="525" y="190" width="120" height="50" as="geometry" />
        </mxCell>
        <mxCell id="dYx_uWbWNn98jqYdyQUA-6" value="" style="edgeStyle=orthogonalEdgeStyle;html=1;verticalAlign=bottom;endArrow=open;endSize=8;strokeColor=#ff0000;" parent="k3D_p9H_ID8sKr_7_CLb-1" source="dYx_uWbWNn98jqYdyQUA-5" edge="1">
          <mxGeometry relative="1" as="geometry">
            <mxPoint x="585" y="290" as="targetPoint" />
          </mxGeometry>
        </mxCell>
        <mxCell id="dYx_uWbWNn98jqYdyQUA-7" value="Sustav sprema osvojene karte pripadnome paru" style="rounded=1;whiteSpace=wrap;html=1;arcSize=40;fontColor=#000000;fillColor=#ffffc0;strokeColor=#ff0000;" parent="k3D_p9H_ID8sKr_7_CLb-1" vertex="1">
          <mxGeometry x="525" y="290" width="120" height="50" as="geometry" />
        </mxCell>
        <mxCell id="dYx_uWbWNn98jqYdyQUA-8" value="" style="edgeStyle=orthogonalEdgeStyle;html=1;verticalAlign=bottom;endArrow=open;endSize=8;strokeColor=#ff0000;" parent="k3D_p9H_ID8sKr_7_CLb-1" source="dYx_uWbWNn98jqYdyQUA-7" edge="1">
          <mxGeometry relative="1" as="geometry">
            <mxPoint x="585" y="390" as="targetPoint" />
          </mxGeometry>
        </mxCell>
        <mxCell id="EeGGHN3igcpwCOQIcz92-0" value="Sustav postavlja sljedečeg igrača prema odigranom krugu" style="rounded=1;whiteSpace=wrap;html=1;arcSize=40;fontColor=#000000;fillColor=#ffffc0;strokeColor=#ff0000;" parent="k3D_p9H_ID8sKr_7_CLb-1" vertex="1">
          <mxGeometry x="525" y="390" width="120" height="60" as="geometry" />
        </mxCell>
        <mxCell id="EeGGHN3igcpwCOQIcz92-1" value="" style="edgeStyle=orthogonalEdgeStyle;html=1;verticalAlign=bottom;endArrow=open;endSize=8;strokeColor=#ff0000;" parent="k3D_p9H_ID8sKr_7_CLb-1" source="EeGGHN3igcpwCOQIcz92-0" edge="1">
          <mxGeometry relative="1" as="geometry">
            <mxPoint x="585" y="520" as="targetPoint" />
          </mxGeometry>
        </mxCell>
        <mxCell id="EeGGHN3igcpwCOQIcz92-2" value="" style="ellipse;html=1;shape=endState;fillColor=#000000;strokeColor=#ff0000;" parent="k3D_p9H_ID8sKr_7_CLb-1" vertex="1">
          <mxGeometry x="570" y="520" width="30" height="30" as="geometry" />
        </mxCell>
      </root>
    </mxGraphModel>
  </diagram>
  <diagram id="HIBjFScgWlqJArkHaBUe" name="Activity: Bodovanje">
    <mxGraphModel dx="1550" dy="888" grid="1" gridSize="10" guides="1" tooltips="1" connect="1" arrows="1" fold="1" page="1" pageScale="1" pageWidth="850" pageHeight="1100" math="0" shadow="0">
      <root>
        <mxCell id="lZies3B38XR9dSIHZJr2-0" />
        <mxCell id="lZies3B38XR9dSIHZJr2-1" parent="lZies3B38XR9dSIHZJr2-0" />
        <mxCell id="rc9y-zZv7ZrLk0lndO1e-0" value="" style="ellipse;html=1;shape=startState;fillColor=#000000;strokeColor=#ff0000;" parent="lZies3B38XR9dSIHZJr2-1" vertex="1">
          <mxGeometry x="410" y="170" width="30" height="30" as="geometry" />
        </mxCell>
        <mxCell id="rc9y-zZv7ZrLk0lndO1e-1" value="" style="edgeStyle=orthogonalEdgeStyle;html=1;verticalAlign=bottom;endArrow=open;endSize=8;strokeColor=#ff0000;" parent="lZies3B38XR9dSIHZJr2-1" source="rc9y-zZv7ZrLk0lndO1e-0" edge="1">
          <mxGeometry relative="1" as="geometry">
            <mxPoint x="425" y="270" as="targetPoint" />
          </mxGeometry>
        </mxCell>
        <mxCell id="ySRLK8AeZooz_fhfXxlK-0" value="Sustav prebrojava pripadne karte svakoga tima" style="rounded=1;whiteSpace=wrap;html=1;arcSize=40;fontColor=#000000;fillColor=#ffffc0;strokeColor=#ff0000;" parent="lZies3B38XR9dSIHZJr2-1" vertex="1">
          <mxGeometry x="365" y="270" width="120" height="40" as="geometry" />
        </mxCell>
        <mxCell id="ySRLK8AeZooz_fhfXxlK-1" value="" style="edgeStyle=orthogonalEdgeStyle;html=1;verticalAlign=bottom;endArrow=open;endSize=8;strokeColor=#ff0000;" parent="lZies3B38XR9dSIHZJr2-1" source="ySRLK8AeZooz_fhfXxlK-0" edge="1">
          <mxGeometry relative="1" as="geometry">
            <mxPoint x="425" y="370" as="targetPoint" />
          </mxGeometry>
        </mxCell>
        <mxCell id="ECR92yjqK9Mym2JhXs6W-0" value="Sustav ispisuje pripadne bodove" style="rounded=1;whiteSpace=wrap;html=1;arcSize=40;fontColor=#000000;fillColor=#ffffc0;strokeColor=#ff0000;" parent="lZies3B38XR9dSIHZJr2-1" vertex="1">
          <mxGeometry x="365" y="370" width="120" height="40" as="geometry" />
        </mxCell>
        <mxCell id="ECR92yjqK9Mym2JhXs6W-1" value="" style="edgeStyle=orthogonalEdgeStyle;html=1;verticalAlign=bottom;endArrow=open;endSize=8;strokeColor=#ff0000;" parent="lZies3B38XR9dSIHZJr2-1" source="ECR92yjqK9Mym2JhXs6W-0" edge="1">
          <mxGeometry relative="1" as="geometry">
            <mxPoint x="425" y="490" as="targetPoint" />
          </mxGeometry>
        </mxCell>
        <mxCell id="ECR92yjqK9Mym2JhXs6W-2" value="" style="ellipse;html=1;shape=endState;fillColor=#000000;strokeColor=#ff0000;" parent="lZies3B38XR9dSIHZJr2-1" vertex="1">
          <mxGeometry x="410" y="490" width="30" height="30" as="geometry" />
        </mxCell>
      </root>
    </mxGraphModel>
  </diagram>
  <diagram id="wqaMqO0DfFZzzBKZuw-L" name="Dijagram arhitekture Trešete">
    <mxGraphModel dx="1550" dy="888" grid="1" gridSize="10" guides="1" tooltips="1" connect="1" arrows="1" fold="1" page="1" pageScale="1" pageWidth="1169" pageHeight="1654" math="0" shadow="0">
      <root>
        <mxCell id="LeEQZhTyp1iXySnFzG6N-0" />
        <mxCell id="LeEQZhTyp1iXySnFzG6N-1" parent="LeEQZhTyp1iXySnFzG6N-0" />
        <mxCell id="LeEQZhTyp1iXySnFzG6N-3" value="«model»&lt;br&gt;&lt;b&gt;Karta&lt;br&gt;&lt;/b&gt;" style="html=1;" vertex="1" parent="LeEQZhTyp1iXySnFzG6N-1">
          <mxGeometry x="300" y="160" width="110" height="50" as="geometry" />
        </mxCell>
        <mxCell id="LeEQZhTyp1iXySnFzG6N-4" value="«view»&lt;br&gt;&lt;b&gt;PrikazIgre&lt;/b&gt;" style="html=1;" vertex="1" parent="LeEQZhTyp1iXySnFzG6N-1">
          <mxGeometry x="810" y="310" width="110" height="50" as="geometry" />
        </mxCell>
        <mxCell id="LeEQZhTyp1iXySnFzG6N-5" value="«controller»&lt;br&gt;&lt;b&gt;Igra&lt;/b&gt;" style="html=1;" vertex="1" parent="LeEQZhTyp1iXySnFzG6N-1">
          <mxGeometry x="570" y="310" width="110" height="50" as="geometry" />
        </mxCell>
        <mxCell id="LeEQZhTyp1iXySnFzG6N-6" value="«model»&lt;br&gt;&lt;b&gt;Spil&lt;/b&gt;" style="html=1;" vertex="1" parent="LeEQZhTyp1iXySnFzG6N-1">
          <mxGeometry x="570" y="160" width="110" height="50" as="geometry" />
        </mxCell>
        <mxCell id="LeEQZhTyp1iXySnFzG6N-7" value="«model»&lt;br&gt;&lt;b&gt;Igrac&lt;/b&gt;" style="html=1;" vertex="1" parent="LeEQZhTyp1iXySnFzG6N-1">
          <mxGeometry x="300" y="310" width="110" height="50" as="geometry" />
        </mxCell>
        <mxCell id="LeEQZhTyp1iXySnFzG6N-8" value="«model»&lt;br&gt;&lt;b&gt;Covjek&lt;/b&gt;" style="html=1;" vertex="1" parent="LeEQZhTyp1iXySnFzG6N-1">
          <mxGeometry x="240" y="460" width="110" height="50" as="geometry" />
        </mxCell>
        <mxCell id="LeEQZhTyp1iXySnFzG6N-9" value="«model»&lt;br&gt;&lt;b&gt;PC&lt;/b&gt;" style="html=1;" vertex="1" parent="LeEQZhTyp1iXySnFzG6N-1">
          <mxGeometry x="370" y="460" width="110" height="50" as="geometry" />
        </mxCell>
        <mxCell id="LeEQZhTyp1iXySnFzG6N-11" value="" style="endArrow=none;html=1;edgeStyle=orthogonalEdgeStyle;" edge="1" parent="LeEQZhTyp1iXySnFzG6N-1">
          <mxGeometry relative="1" as="geometry">
            <mxPoint x="680" y="334.5" as="sourcePoint" />
            <mxPoint x="810" y="335" as="targetPoint" />
            <Array as="points">
              <mxPoint x="780" y="335" />
              <mxPoint x="780" y="335" />
            </Array>
          </mxGeometry>
        </mxCell>
        <mxCell id="LeEQZhTyp1iXySnFzG6N-14" value="" style="endArrow=none;html=1;edgeStyle=orthogonalEdgeStyle;" edge="1" parent="LeEQZhTyp1iXySnFzG6N-1">
          <mxGeometry relative="1" as="geometry">
            <mxPoint x="410" y="334.5" as="sourcePoint" />
            <mxPoint x="570" y="334.5" as="targetPoint" />
            <Array as="points">
              <mxPoint x="450" y="335" />
              <mxPoint x="450" y="335" />
            </Array>
          </mxGeometry>
        </mxCell>
        <mxCell id="LeEQZhTyp1iXySnFzG6N-15" value="" style="endArrow=none;html=1;edgeStyle=orthogonalEdgeStyle;" edge="1" parent="LeEQZhTyp1iXySnFzG6N-1">
          <mxGeometry relative="1" as="geometry">
            <mxPoint x="410" y="190" as="sourcePoint" />
            <mxPoint x="570" y="190" as="targetPoint" />
            <Array as="points">
              <mxPoint x="450" y="190.5" />
              <mxPoint x="450" y="190.5" />
            </Array>
          </mxGeometry>
        </mxCell>
        <mxCell id="LeEQZhTyp1iXySnFzG6N-16" value="" style="endArrow=none;html=1;edgeStyle=orthogonalEdgeStyle;exitX=0.5;exitY=1;exitDx=0;exitDy=0;entryX=0.5;entryY=0;entryDx=0;entryDy=0;" edge="1" parent="LeEQZhTyp1iXySnFzG6N-1" source="LeEQZhTyp1iXySnFzG6N-6" target="LeEQZhTyp1iXySnFzG6N-5">
          <mxGeometry relative="1" as="geometry">
            <mxPoint x="470" y="260" as="sourcePoint" />
            <mxPoint x="630" y="260" as="targetPoint" />
            <Array as="points">
              <mxPoint x="625" y="280" />
              <mxPoint x="625" y="280" />
            </Array>
          </mxGeometry>
        </mxCell>
        <mxCell id="LeEQZhTyp1iXySnFzG6N-17" value="" style="endArrow=none;html=1;edgeStyle=orthogonalEdgeStyle;exitX=0.5;exitY=1;exitDx=0;exitDy=0;entryX=0.5;entryY=0;entryDx=0;entryDy=0;" edge="1" parent="LeEQZhTyp1iXySnFzG6N-1">
          <mxGeometry relative="1" as="geometry">
            <mxPoint x="354.5" y="210" as="sourcePoint" />
            <mxPoint x="354.5" y="310" as="targetPoint" />
            <Array as="points">
              <mxPoint x="354.5" y="280" />
              <mxPoint x="354.5" y="280" />
            </Array>
          </mxGeometry>
        </mxCell>
        <mxCell id="LeEQZhTyp1iXySnFzG6N-24" value="" style="endArrow=block;endSize=16;endFill=0;html=1;exitX=0.5;exitY=0;exitDx=0;exitDy=0;entryX=0.25;entryY=1;entryDx=0;entryDy=0;" edge="1" parent="LeEQZhTyp1iXySnFzG6N-1" source="LeEQZhTyp1iXySnFzG6N-8" target="LeEQZhTyp1iXySnFzG6N-7">
          <mxGeometry width="160" relative="1" as="geometry">
            <mxPoint x="120" y="370" as="sourcePoint" />
            <mxPoint x="280" y="370" as="targetPoint" />
          </mxGeometry>
        </mxCell>
        <mxCell id="LeEQZhTyp1iXySnFzG6N-25" value="" style="endArrow=block;endSize=16;endFill=0;html=1;entryX=0.75;entryY=1;entryDx=0;entryDy=0;exitX=0.5;exitY=0;exitDx=0;exitDy=0;" edge="1" parent="LeEQZhTyp1iXySnFzG6N-1" source="LeEQZhTyp1iXySnFzG6N-9" target="LeEQZhTyp1iXySnFzG6N-7">
          <mxGeometry width="160" relative="1" as="geometry">
            <mxPoint x="330" y="420" as="sourcePoint" />
            <mxPoint x="490" y="420" as="targetPoint" />
          </mxGeometry>
        </mxCell>
      </root>
    </mxGraphModel>
  </diagram>
  <diagram id="4MuoYBKWAyiIsdPnQh8T" name="Page-10">
    <mxGraphModel dx="1550" dy="888" grid="1" gridSize="10" guides="1" tooltips="1" connect="1" arrows="1" fold="1" page="1" pageScale="1" pageWidth="1169" pageHeight="1654" math="0" shadow="0">
      <root>
        <mxCell id="EFZcNYhXfoERid09aZKw-0" />
        <mxCell id="EFZcNYhXfoERid09aZKw-1" parent="EFZcNYhXfoERid09aZKw-0" />
      </root>
    </mxGraphModel>
  </diagram>
</mxfile>
